<svg width="60" height="54" viewBox="0 0 60 54" fill="none" xmlns="http://www.w3.org/2000/svg">
<path d="M57.5 29C58.8807 29 60 30.1193 60 31.5C60 32.8807 58.8807 34 57.5 34H5V39H58C58.0689 39 58.137 39.0039 58.2041 39.0107C59.2128 39.113 60 39.9643 60 41V52C60 53.1046 59.1046 54 58 54H2.5C1.11929 54 0 52.8807 0 51.5C0 50.1193 1.11929 49 2.5 49H55V44H2C0.895431 44 1.61067e-08 43.1046 0 42V31C0 29.8954 0.895431 29 2 29H57.5Z" fill="black"/>
<path d="M39.041 0C43.843 0.00012076 47.9667 3.41353 48.8642 8.13086L50.1318 14.7949L50.8369 17.6572C51.4969 20.3386 49.8581 23.047 47.1767 23.707C44.4954 24.367 41.787 22.7283 41.1269 20.0469L39.9316 15.1924C39.9159 15.1283 39.9008 15.0641 39.8877 15H21.1006C21.086 15.0729 21.0697 15.1459 21.0517 15.2188L19.8564 20.0742C19.1964 22.7556 16.487 24.3944 13.8057 23.7344C11.1246 23.0742 9.48668 20.3657 10.1465 17.6846L10.8066 15H10.8008L12.125 8.11133C13.0306 3.40313 17.1508 4.14183e-05 21.9453 0H39.041ZM20 4C19.2637 4 18.6672 4.59678 18.667 5.33301V6.66699H17.333C16.5968 6.66717 16 7.26373 16 8C16 8.73627 16.5968 9.33283 17.333 9.33301H18.667V10.667C18.6672 11.4032 19.2637 12 20 12C20.7363 12 21.3328 11.4032 21.333 10.667V9.33301H22.667C23.4032 9.33283 24 8.73627 24 8C24 7.26373 23.4032 6.66717 22.667 6.66699H21.333V5.33301C21.3328 4.59678 20.7363 4 20 4ZM41 9.33301C40.2636 9.33301 39.667 9.93061 39.667 10.667C39.6672 11.4032 40.2637 12 41 12C41.7363 12 42.3328 11.4032 42.333 10.667C42.333 9.93061 41.7364 9.33301 41 9.33301ZM38.333 6.66699C37.5968 6.66717 37 7.26373 37 8C37 8.73627 37.5968 9.33283 38.333 9.33301C39.0694 9.33301 39.667 8.73638 39.667 8C39.667 7.26362 39.0694 6.66699 38.333 6.66699ZM43.667 6.66699C42.9306 6.66699 42.333 7.26362 42.333 8C42.333 8.73638 42.9306 9.33301 43.667 9.33301C44.4032 9.33283 45 8.73627 45 8C45 7.26373 44.4032 6.66717 43.667 6.66699ZM41 4C40.2637 4 39.6672 4.59678 39.667 5.33301C39.667 6.06939 40.2636 6.66699 41 6.66699C41.7364 6.66699 42.333 6.06939 42.333 5.33301C42.3328 4.59678 41.7363 4 41 4Z" fill="black"/>
</svg>
