<svg width="172" height="70" viewBox="0 0 172 70" fill="none" xmlns="http://www.w3.org/2000/svg">
<path d="M72.892 4.45455L76.4077 15.5057H76.5426L80.0653 4.45455H83.4744L78.4602 19H74.4972L69.4759 4.45455H72.892ZM88.3004 4.45455V19H85.2251V4.45455H88.3004ZM95.9869 19H90.8306V4.45455H96.0295C97.4925 4.45455 98.752 4.74574 99.8079 5.32812C100.864 5.90578 101.676 6.73674 102.244 7.82102C102.817 8.9053 103.103 10.2027 103.103 11.7131C103.103 13.2282 102.817 14.5303 102.244 15.6193C101.676 16.7083 100.859 17.544 99.7937 18.1264C98.7331 18.7088 97.4641 19 95.9869 19ZM93.9059 16.3651H95.859C96.7681 16.3651 97.5328 16.2041 98.1531 15.8821C98.7781 15.5554 99.2468 15.0511 99.5593 14.3693C99.8765 13.6828 100.035 12.7973 100.035 11.7131C100.035 10.6383 99.8765 9.75994 99.5593 9.07812C99.2468 8.39631 98.7804 7.89441 98.1602 7.57244C97.5399 7.25047 96.7752 7.08949 95.8661 7.08949H93.9059V16.3651ZM105.381 19V4.45455H115.183V6.99006H108.457V10.456H114.678V12.9915H108.457V16.4645H115.211V19H105.381ZM130.994 11.7273C130.994 13.3134 130.693 14.6629 130.092 15.7756C129.495 16.8883 128.681 17.7382 127.649 18.3253C126.621 18.9077 125.466 19.1989 124.183 19.1989C122.89 19.1989 121.73 18.9053 120.703 18.3182C119.675 17.7311 118.863 16.8812 118.267 15.7685C117.67 14.6558 117.372 13.3087 117.372 11.7273C117.372 10.1411 117.67 8.79167 118.267 7.67898C118.863 6.56629 119.675 5.71875 120.703 5.13636C121.73 4.54924 122.89 4.25568 124.183 4.25568C125.466 4.25568 126.621 4.54924 127.649 5.13636C128.681 5.71875 129.495 6.56629 130.092 7.67898C130.693 8.79167 130.994 10.1411 130.994 11.7273ZM127.876 11.7273C127.876 10.6998 127.722 9.83333 127.414 9.12784C127.111 8.42235 126.683 7.88731 126.129 7.52273C125.575 7.15814 124.926 6.97585 124.183 6.97585C123.44 6.97585 122.791 7.15814 122.237 7.52273C121.683 7.88731 121.252 8.42235 120.944 9.12784C120.641 9.83333 120.49 10.6998 120.49 11.7273C120.49 12.7547 120.641 13.6212 120.944 14.3267C121.252 15.0322 121.683 15.5672 122.237 15.9318C122.791 16.2964 123.44 16.4787 124.183 16.4787C124.926 16.4787 125.575 16.2964 126.129 15.9318C126.683 15.5672 127.111 15.0322 127.414 14.3267C127.722 13.6212 127.876 12.7547 127.876 11.7273Z" fill="white"/>
<path d="M79.9091 32.4896C79.8097 32.1439 79.67 31.8386 79.4901 31.5734C79.3101 31.3035 79.09 31.0762 78.8295 30.8916C78.5739 30.7022 78.2803 30.5578 77.9489 30.4583C77.6222 30.3589 77.2599 30.3092 76.8622 30.3092C76.1188 30.3092 75.4654 30.4939 74.902 30.8632C74.3433 31.2325 73.9077 31.7699 73.5952 32.4754C73.2827 33.1761 73.1264 34.0332 73.1264 35.0464C73.1264 36.0597 73.2803 36.9214 73.5881 37.6316C73.8958 38.3419 74.3314 38.884 74.8949 39.2581C75.4583 39.6274 76.1236 39.812 76.8906 39.812C77.5866 39.812 78.1809 39.6889 78.6733 39.4427C79.1705 39.1918 79.5492 38.839 79.8097 38.3845C80.0748 37.9299 80.2074 37.3925 80.2074 36.7723L80.8324 36.8646H77.0824V34.5493H83.169V36.3816C83.169 37.66 82.8991 38.7585 82.3594 39.6771C81.8196 40.5909 81.0762 41.2964 80.1293 41.7936C79.1823 42.286 78.098 42.5322 76.8764 42.5322C75.5128 42.5322 74.3149 42.2315 73.2827 41.6302C72.2505 41.0242 71.4455 40.1648 70.8679 39.0521C70.295 37.9347 70.0085 36.6089 70.0085 35.0748C70.0085 33.8958 70.179 32.8447 70.5199 31.9214C70.8655 30.9934 71.3485 30.2074 71.9688 29.5635C72.589 28.9195 73.3111 28.4295 74.1349 28.0933C74.9588 27.7571 75.8513 27.589 76.8125 27.589C77.6364 27.589 78.4034 27.7098 79.1136 27.9512C79.8239 28.188 80.4536 28.5242 81.0028 28.9598C81.5568 29.3954 82.009 29.9138 82.3594 30.5152C82.7098 31.1118 82.9347 31.7699 83.0341 32.4896H79.9091ZM87.5369 42.3333H84.2415L89.2628 27.7879H93.2259L98.2401 42.3333H94.9446L91.3011 31.1118H91.1875L87.5369 42.3333ZM87.331 36.616H95.1151V39.0166H87.331V36.616ZM99.9908 27.7879H103.783L107.789 37.5606H107.96L111.965 27.7879H115.758V42.3333H112.775V32.866H112.654L108.89 42.2623H106.859L103.094 32.8305H102.974V42.3333H99.9908V27.7879ZM118.292 42.3333V27.7879H128.093V30.3234H121.367V33.7893H127.588V36.3248H121.367V39.7978H128.121V42.3333H118.292ZM138.428 31.9711C138.371 31.3982 138.128 30.9531 137.697 30.6359C137.266 30.3187 136.681 30.16 135.942 30.16C135.441 30.16 135.017 30.2311 134.671 30.3731C134.326 30.5104 134.06 30.7022 133.876 30.9484C133.696 31.1946 133.606 31.474 133.606 31.7865C133.596 32.0469 133.651 32.2742 133.769 32.4683C133.892 32.6624 134.06 32.8305 134.273 32.9725C134.487 33.1099 134.733 33.2306 135.012 33.3348C135.291 33.4342 135.59 33.5194 135.907 33.5904L137.214 33.9029C137.848 34.045 138.431 34.2344 138.961 34.4711C139.491 34.7079 139.951 34.9991 140.339 35.3447C140.727 35.6904 141.028 36.0975 141.241 36.5663C141.459 37.035 141.57 37.5725 141.575 38.1785C141.57 39.0687 141.343 39.8404 140.893 40.4939C140.448 41.1425 139.804 41.6468 138.961 42.0066C138.123 42.3618 137.112 42.5393 135.928 42.5393C134.754 42.5393 133.731 42.3594 132.86 41.9995C131.994 41.6397 131.317 41.107 130.829 40.4015C130.346 39.6913 130.093 38.813 130.069 37.7666H133.045C133.078 38.2543 133.218 38.6615 133.464 38.9882C133.715 39.3101 134.049 39.554 134.465 39.7197C134.887 39.8807 135.362 39.9612 135.893 39.9612C136.414 39.9612 136.866 39.8854 137.249 39.7339C137.638 39.5824 137.938 39.3717 138.151 39.1018C138.364 38.8319 138.471 38.5218 138.471 38.1714C138.471 37.8447 138.374 37.5701 138.18 37.3475C137.99 37.125 137.711 36.9356 137.342 36.7794C136.977 36.6231 136.53 36.4811 135.999 36.3532L134.415 35.9555C133.189 35.6572 132.221 35.1908 131.511 34.5564C130.8 33.9219 130.448 33.0672 130.452 31.9924C130.448 31.1118 130.682 30.3423 131.156 29.6842C131.634 29.0261 132.29 28.5123 133.123 28.143C133.956 27.7737 134.903 27.589 135.964 27.589C137.043 27.589 137.986 27.7737 138.79 28.143C139.6 28.5123 140.23 29.0261 140.68 29.6842C141.129 30.3423 141.362 31.1046 141.376 31.9711H138.428Z" fill="white"/>
<path d="M70.2642 51.1212H74.0568L78.0625 60.8939H78.233L82.2386 51.1212H86.0312V65.6667H83.0483V56.1993H82.9276L79.1634 65.5956H77.1321L73.3679 56.1638H73.2472V65.6667H70.2642V51.1212ZM91.0721 65.6667H87.7766L92.7979 51.1212H96.761L101.775 65.6667H98.4798L94.8363 54.4451H94.7227L91.0721 65.6667ZM90.8661 59.9493H98.6502V62.3499H90.8661V59.9493ZM115.692 51.1212V65.6667H113.036L106.708 56.5118H106.601V65.6667H103.526V51.1212H106.225L112.503 60.2689H112.631V51.1212H115.692ZM120.74 65.6667H117.445L122.466 51.1212H126.429L131.443 65.6667H128.148L124.504 54.4451H124.391L120.74 65.6667ZM120.534 59.9493H128.318V62.3499H120.534V59.9493ZM142.155 55.8229C142.056 55.4773 141.916 55.1719 141.736 54.9067C141.556 54.6368 141.336 54.4096 141.076 54.2249C140.82 54.0355 140.526 53.8911 140.195 53.7917C139.868 53.6922 139.506 53.6425 139.108 53.6425C138.365 53.6425 137.712 53.8272 137.148 54.1965C136.589 54.5658 136.154 55.1032 135.841 55.8087C135.529 56.5095 135.373 57.3665 135.373 58.3797C135.373 59.393 135.526 60.2547 135.834 60.965C136.142 61.6752 136.578 62.2173 137.141 62.5914C137.704 62.9607 138.37 63.1453 139.137 63.1453C139.833 63.1453 140.427 63.0222 140.919 62.776C141.417 62.5251 141.795 62.1723 142.056 61.7178C142.321 61.2632 142.453 60.7258 142.453 60.1056L143.078 60.1979H139.328V57.8826H145.415V59.715C145.415 60.9934 145.145 62.0918 144.605 63.0104C144.066 63.9242 143.322 64.6297 142.375 65.1269C141.428 65.6193 140.344 65.8655 139.123 65.8655C137.759 65.8655 136.561 65.5649 135.529 64.9635C134.497 64.3575 133.692 63.4981 133.114 62.3854C132.541 61.268 132.255 59.9422 132.255 58.4081C132.255 57.2292 132.425 56.178 132.766 55.2547C133.112 54.3267 133.595 53.5407 134.215 52.8968C134.835 52.2528 135.557 51.7628 136.381 51.4266C137.205 51.0904 138.097 50.9223 139.059 50.9223C139.882 50.9223 140.65 51.0431 141.36 51.2846C142.07 51.5213 142.7 51.8575 143.249 52.2931C143.803 52.7287 144.255 53.2471 144.605 53.8485C144.956 54.4451 145.181 55.1032 145.28 55.8229H142.155ZM147.725 65.6667V51.1212H157.526V53.6567H150.8V57.1226H157.022V59.6581H150.8V63.1311H157.555V65.6667H147.725ZM159.971 65.6667V51.1212H165.71C166.808 51.1212 167.746 51.3177 168.522 51.7107C169.304 52.0989 169.898 52.6506 170.305 53.3655C170.717 54.0757 170.923 54.9114 170.923 55.8726C170.923 56.8385 170.715 57.6695 170.298 58.3655C169.881 59.0568 169.278 59.5871 168.487 59.9564C167.701 60.3257 166.749 60.5104 165.632 60.5104H161.789V58.0388H165.135C165.722 58.0388 166.209 57.9583 166.598 57.7973C166.986 57.6364 167.275 57.3949 167.464 57.0729C167.658 56.7509 167.755 56.3508 167.755 55.8726C167.755 55.3897 167.658 54.9825 167.464 54.651C167.275 54.3196 166.984 54.0686 166.591 53.8982C166.202 53.723 165.712 53.6354 165.12 53.6354H163.047V65.6667H159.971ZM167.826 59.0473L171.441 65.6667H168.047L164.51 59.0473H167.826Z" fill="white"/>
<path fill-rule="evenodd" clip-rule="evenodd" d="M0 42C0 40.8954 0.895431 40 2 40H3H57.5C58.8807 40 60 41.1193 60 42.5C60 43.8807 58.8807 45 57.5 45H5V50H57H58C59.1046 50 60 50.8954 60 52V53V62V63C60 64.1046 59.1046 65 58 65H57H2.5C1.11929 65 0 63.8807 0 62.5C0 61.1193 1.11929 60 2.5 60H55V55H3H2C0.895432 55 0 54.1046 0 53V52V43V42Z" fill="white"/>
<path fill-rule="evenodd" clip-rule="evenodd" d="M12.1254 19.1111C13.031 14.4029 17.1509 11 21.9454 11H39.0408C43.843 11 47.9671 14.4136 48.8646 19.1312L50.1322 25.7949L50.8368 28.6572C51.4968 31.3386 49.8582 34.0473 47.1768 34.7074C44.4954 35.3674 41.7866 33.7287 41.1266 31.0473L39.9316 26.1922C39.9158 26.1282 39.9013 26.0641 39.8882 26H21.1002C21.0856 26.0731 21.0693 26.1461 21.0513 26.2192L19.8563 31.0743C19.1962 33.7557 16.4875 35.3943 13.8061 34.7343C11.1247 34.0743 9.48607 31.3656 10.1461 28.6842L10.8068 26H10.8003L12.1254 19.1111ZM18.6667 16.3333C18.6667 15.597 19.2636 15 20 15C20.7364 15 21.3333 15.597 21.3333 16.3333V17.6667H22.6667C23.403 17.6667 24 18.2636 24 19C24 19.7364 23.403 20.3333 22.6667 20.3333H21.3333V21.6667C21.3333 22.403 20.7364 23 20 23C19.2636 23 18.6667 22.403 18.6667 21.6667V20.3333H17.3333C16.597 20.3333 16 19.7364 16 19C16 18.2636 16.597 17.6667 17.3333 17.6667H18.6667V16.3333ZM42.3333 16.3333C42.3333 17.0697 41.7364 17.6667 41 17.6667C40.2636 17.6667 39.6667 17.0697 39.6667 16.3333C39.6667 15.597 40.2636 15 41 15C41.7364 15 42.3333 15.597 42.3333 16.3333ZM41 23C41.7364 23 42.3333 22.403 42.3333 21.6667C42.3333 20.9303 41.7364 20.3333 41 20.3333C40.2636 20.3333 39.6667 20.9303 39.6667 21.6667C39.6667 22.403 40.2636 23 41 23ZM39.6667 19C39.6667 19.7364 39.0697 20.3333 38.3333 20.3333C37.597 20.3333 37 19.7364 37 19C37 18.2636 37.597 17.6667 38.3333 17.6667C39.0697 17.6667 39.6667 18.2636 39.6667 19ZM43.6667 20.3333C44.403 20.3333 45 19.7364 45 19C45 18.2636 44.403 17.6667 43.6667 17.6667C42.9303 17.6667 42.3333 18.2636 42.3333 19C42.3333 19.7364 42.9303 20.3333 43.6667 20.3333Z" fill="white"/>
</svg>
